<?xml version="1.0" encoding="utf-8"?>
<!-- Generator: Adobe Illustrator 23.0.3, SVG Export Plug-In . SVG Version: 6.00 Build 0)  -->
<svg version="1.1" id="Layer_1" xmlns="http://www.w3.org/2000/svg" xmlns:xlink="http://www.w3.org/1999/xlink" x="0px" y="0px"
	 viewBox="0 0 129.6 129.6" style="enable-background:new 0 0 129.6 129.6;" xml:space="preserve">
<style type="text/css">
	.st0{fill:#FFFFFF;}
	.st1{fill:#37984B;}
	.st2{fill:#F7C528;}
	.st3{fill:#38994C;}
	.st4{fill:#070707;}
	.st5{fill:none;stroke:#ED1B25;stroke-width:7;stroke-miterlimit:10;}
	.st6{fill:url(#SVGID_1_);}
	.st7{fill:url(#SVGID_2_);}
	.st8{fill:url(#SVGID_3_);}
	.st9{fill:url(#SVGID_4_);}
	.st10{fill:url(#SVGID_5_);}
	.st11{fill:url(#SVGID_6_);}
	.st12{fill:url(#SVGID_7_);}
	.st13{fill:url(#SVGID_8_);}
	.st14{fill:url(#SVGID_9_);}
	.st15{fill:url(#SVGID_10_);}
	.st16{fill:#B112EB;}
	.st17{fill:#42BA2A;}
	.st18{fill:url(#SVGID_11_);}
	.st19{fill:url(#SVGID_12_);}
	.st20{fill:url(#SVGID_13_);}
	.st21{fill:url(#SVGID_14_);}
	.st22{fill:url(#SVGID_15_);}
	.st23{fill:url(#SVGID_16_);}
	.st24{fill:url(#SVGID_17_);}
	.st25{fill:url(#SVGID_18_);}
	.st26{fill:url(#SVGID_19_);}
	.st27{fill:url(#SVGID_20_);}
	.st28{fill:url(#SVGID_21_);}
	.st29{fill:url(#SVGID_22_);}
	.st30{fill:url(#SVGID_23_);}
	.st31{fill:url(#SVGID_24_);}
	.st32{fill:url(#SVGID_25_);}
	.st33{fill:url(#SVGID_26_);}
	.st34{fill:url(#SVGID_27_);}
	.st35{fill:url(#SVGID_28_);}
	.st36{fill:url(#SVGID_29_);}
	.st37{fill:url(#SVGID_30_);}
	.st38{fill:url(#SVGID_31_);}
	.st39{fill:url(#SVGID_32_);}
	.st40{fill:url(#SVGID_33_);}
	.st41{fill:url(#SVGID_34_);}
	.st42{fill:url(#SVGID_35_);}
	.st43{fill:url(#SVGID_36_);}
	.st44{fill:url(#SVGID_37_);}
	.st45{fill:url(#SVGID_38_);}
	.st46{fill:url(#SVGID_39_);}
	.st47{fill:url(#SVGID_40_);}
	.st48{fill:url(#SVGID_41_);}
	.st49{fill:url(#SVGID_42_);}
	.st50{fill:url(#SVGID_43_);}
	.st51{fill:url(#SVGID_44_);}
	.st52{fill:url(#SVGID_45_);}
	.st53{fill:url(#SVGID_46_);}
	.st54{fill:url(#SVGID_47_);}
	.st55{fill:url(#SVGID_48_);}
	.st56{fill:url(#SVGID_49_);}
	.st57{fill:url(#SVGID_50_);}
	.st58{fill:url(#SVGID_51_);}
	.st59{fill:url(#SVGID_52_);}
	.st60{fill:url(#SVGID_53_);}
	.st61{fill:url(#SVGID_54_);}
	.st62{fill:url(#SVGID_55_);}
	.st63{fill:url(#SVGID_56_);}
	.st64{fill:url(#SVGID_57_);}
	.st65{fill:url(#SVGID_58_);}
	.st66{fill:url(#SVGID_59_);}
	.st67{fill:url(#SVGID_60_);}
	.st68{fill:#353535;}
	.st69{fill:#E22310;}
	.st70{fill:url(#SVGID_61_);}
	.st71{fill:url(#SVGID_62_);}
	.st72{fill:url(#SVGID_63_);}
	.st73{fill:url(#SVGID_64_);}
	.st74{fill:url(#SVGID_65_);}
</style>
<path class="st69" d="M122.8,69.7c-1.4-0.2-2.6,0.8-2.7,2.2l-0.1,1.1c-3-0.2-10-0.9-16.5-4.1c-1.6-0.8-2.8-2.3-3.3-4.1l-1-4.1
	c2.3-1.3,5.1-2.5,8.5-3l0.4,1.7c0.3,1.3,1.6,2.1,2.8,1.8c1.3-0.3,2.1-1.6,1.8-2.8l-1.3-5.4c-0.3-1.3-1.6-2.1-2.8-1.8
	c-1.3,0.3-2.1,1.6-1.8,2.8l0.4,1.6c-1.7,0.5-5.2,1.3-8.8,1.5L97.2,52c-0.4-1.8,0-3.7,1.1-5.1c4.2-5.5,9.8-9.3,12.5-10.9l1.1,1.6
	c0.7,1.1,2.3,1.5,3.4,0.7c1.1-0.7,1.5-2.3,0.7-3.4l-3.5-5.4c-0.7-1.1-2.3-1.5-3.4-0.7c-1.1,0.7-1.5,2.3-0.7,3.4l1,1.5
	c-2.3,2-7.7,6.4-14.4,8.6c-1.7,0.6-3.6,0.4-5.2-0.6l-3.9-2.4c0.7-2.5,1.9-5.2,3.8-8l1.4,0.9c1.1,0.7,2.6,0.3,3.3-0.8
	c0.7-1.1,0.3-2.6-0.8-3.3l-4.7-2.9c-1.1-0.7-2.6-0.3-3.3,0.8c-0.7,1.1-0.3,2.6,0.8,3.3l1.4,0.9c-0.8,1.5-2.6,4.5-5.1,7.2l-4-2.5
	c-1.6-1-2.6-2.6-2.9-4.4c-1-7,0.4-13.7,1.2-16.7l2,0.2c1.4,0.2,2.6-0.8,2.7-2.2c0.2-1.4-0.8-2.6-2.2-2.7l-6.4-0.7
	c-1.4-0.2-2.6,0.8-2.7,2.2c-0.2,1.4,0.8,2.6,2.2,2.7l1.5,0.2c-0.2,3-0.9,10-4.1,16.5c-0.8,1.6-2.3,2.8-4.1,3.3l-4.4,1
	c-1.4-2.3-2.6-5.2-3.1-8.7l1.7-0.4c1.3-0.3,2.1-1.6,1.8-2.8c-0.3-1.3-1.6-2.1-2.8-1.8l-5.4,1.3c-1.3,0.3-2.1,1.6-1.8,2.8
	c0.3,1.3,1.6,2.1,2.8,1.8l1.6-0.4c0.5,1.7,1.4,5.3,1.5,9.1l-4.4,1c-1.8,0.4-3.7,0-5.1-1.1c-5.8-4.4-9.7-10.4-11.1-13l1.4-0.9
	c1.1-0.7,1.5-2.3,0.7-3.4c-0.7-1.1-2.3-1.5-3.4-0.7l-5.4,3.5c-1.1,0.7-1.5,2.3-0.7,3.4c0.7,1.1,2.3,1.5,3.4,0.7l1.3-0.9
	c1.8,1.9,6.6,7.7,9,14.9c0.6,1.7,0.4,3.6-0.6,5.2l-2.2,3.5c-2.6-0.7-5.5-1.8-8.5-4l0.9-1.4c0.7-1.1,0.3-2.6-0.8-3.3
	c-1.1-0.7-2.6-0.3-3.3,0.8L26,44.4c-0.7,1.1-0.3,2.6,0.8,3.3c1.1,0.7,2.6,0.3,3.3-0.8l0.9-1.4c1.6,0.9,4.8,2.8,7.5,5.5l-2.6,4.2
	c-1,1.6-2.6,2.6-4.4,2.9c-7,1-13.8-0.8-16.9-1.7l0.2-2c0.2-1.4-0.8-2.6-2.2-2.7c-1.4-0.2-2.6,0.8-2.7,2.2l-0.7,6.4
	c-0.2,1.4,0.8,2.6,2.2,2.7c1.4,0.2,2.6-0.8,2.7-2.2l0.2-1.8C17.5,59.1,24,60,30,63c1.6,0.8,2.8,2.3,3.3,4.1l1.2,5.1
	c-2.2,1.2-4.9,2.3-8.2,2.8l-0.4-1.7c-0.3-1.3-1.6-2.1-2.8-1.8c-1.3,0.3-2.1,1.6-1.8,2.8l1.3,5.4c0.3,1.3,1.6,2.1,2.8,1.8
	c1.3-0.3,2.1-1.6,1.8-2.8l-0.4-1.6c1.7-0.5,5-1.3,8.5-1.5l1,4.1c0.4,1.8,0,3.7-1.1,5.1c-4.2,5.6-9.9,9.3-12.6,10.9L22,95
	c-0.7-1.1-2.3-1.5-3.4-0.7c-1.1,0.7-1.5,2.3-0.7,3.4l3.5,5.4c0.7,1.1,2.3,1.5,3.4,0.7c1.1-0.7,1.5-2.3,0.7-3.4l-1.4-2.2
	c2.1-1.9,7.7-6.5,14.7-8.8c1.7-0.6,3.6-0.4,5.2,0.6l4.3,2.7c-0.7,2.7-1.8,5.6-4,8.6l-1.4-0.9c-1.1-0.7-2.6-0.3-3.3,0.8
	c-0.7,1.1-0.3,2.6,0.8,3.3l4.7,2.9c1.1,0.7,2.6,0.3,3.3-0.8c0.7-1.1,0.3-2.6-0.8-3.3l-1.4-0.9c0.9-1.6,2.9-4.9,5.6-7.6l3.3,2.1
	c1.6,1,2.6,2.6,2.9,4.4c1.1,7.8-0.8,15.3-1.5,17.6l-1.5-0.2c-1.4-0.2-2.6,0.8-2.7,2.2c-0.2,1.4,0.8,2.6,2.2,2.7l6.4,0.7
	c1.4,0.2,2.6-0.8,2.7-2.2c0.2-1.4-0.8-2.6-2.2-2.7l-1.9-0.2c0.1-2.1,0.5-10.1,4.2-17.4c0.8-1.6,2.3-2.8,4.1-3.3l4.2-1
	c1.6,2.4,3,5.6,3.6,9.5l-1.7,0.4c-1.3,0.3-2.1,1.6-1.8,2.8c0.3,1.3,1.6,2.1,2.8,1.8l5.4-1.3c1.3-0.3,2.1-1.6,1.8-2.8
	c-0.3-1.3-1.6-2.1-2.8-1.8l-1.6,0.4c-0.5-1.9-1.5-5.9-1.5-10l4.2-1c1.8-0.4,3.7,0,5.1,1.1c6.5,4.9,10.1,12,11,14l-1,0.6
	c-1.1,0.7-1.5,2.3-0.7,3.4c0.7,1.1,2.3,1.5,3.4,0.7l5.4-3.5c1.1-0.7,1.5-2.3,0.7-3.4c-0.7-1.1-2.3-1.5-3.4-0.7l-1.3,0.9
	c-1.7-1.8-6.7-7.6-9.1-15c-0.6-1.7-0.4-3.6,0.6-5.2l2.1-3.4c2.7,0.6,5.7,1.8,8.6,4l-0.9,1.4c-0.7,1.1-0.3,2.6,0.8,3.3
	c1.1,0.7,2.6,0.3,3.3-0.8l2.9-4.7c0.7-1.1,0.3-2.6-0.8-3.3c-1.1-0.7-2.6-0.3-3.3,0.8l-0.9,1.4c-1.6-0.9-4.9-2.9-7.7-5.6l2.6-4.3
	c1-1.6,2.6-2.6,4.4-2.9c7.4-1,14.4,0.6,17.2,1.3l-0.3,2.6c-0.2,1.4,0.8,2.6,2.2,2.7c1.4,0.2,2.6-0.8,2.7-2.2l0.7-6.4
	C125.1,71.1,124.1,69.8,122.8,69.7z M85.5,47.6c1.9,0,3.4,1.5,3.4,3.4s-1.5,3.4-3.4,3.4c-1.9,0-3.4-1.5-3.4-3.4S83.6,47.6,85.5,47.6
	z M70.5,40.8c1.9,0,3.4,1.5,3.4,3.4c0,1.9-1.5,3.4-3.4,3.4s-3.4-1.5-3.4-3.4C67.2,42.3,68.7,40.8,70.5,40.8z M65.4,56.6
	c1.9,0,3.4,1.5,3.4,3.4c0,1.9-1.5,3.4-3.4,3.4c-1.9,0-3.4-1.5-3.4-3.4C62,58.1,63.5,56.6,65.4,56.6z M43.5,69.6
	c-1.9,0-3.4-1.5-3.4-3.4s1.5-3.4,3.4-3.4s3.4,1.5,3.4,3.4S45.3,69.6,43.5,69.6z M46,56.5c0-1.9,1.5-3.4,3.4-3.4s3.4,1.5,3.4,3.4
	c0,1.9-1.5,3.4-3.4,3.4S46,58.4,46,56.5z M52.8,83.8c-1.9,0-3.4-1.5-3.4-3.4s1.5-3.4,3.4-3.4c1.9,0,3.4,1.5,3.4,3.4
	S54.7,83.8,52.8,83.8z M57.8,50.9c-1.9,0-3.4-1.5-3.4-3.4c0-1.9,1.5-3.4,3.4-3.4s3.4,1.5,3.4,3.4C61.2,49.4,59.7,50.9,57.8,50.9z
	 M59.1,73.3c0-1.9,1.5-3.4,3.4-3.4c1.9,0,3.4,1.5,3.4,3.4s-1.5,3.4-3.4,3.4C60.6,76.7,59.1,75.2,59.1,73.3z M66.3,90.1
	c-1.9,0-3.4-1.5-3.4-3.4s1.5-3.4,3.4-3.4s3.4,1.5,3.4,3.4S68.1,90.1,66.3,90.1z M73.5,76.7c-1.9,0-3.4-1.5-3.4-3.4s1.5-3.4,3.4-3.4
	s3.4,1.5,3.4,3.4S75.4,76.7,73.5,76.7z M76.2,59.9c-1.9,0-3.4-1.5-3.4-3.4c0-1.9,1.5-3.4,3.4-3.4s3.4,1.5,3.4,3.4
	C79.6,58.4,78.1,59.9,76.2,59.9z M83,80.1c-1.9,0-3.4-1.5-3.4-3.4c0-1.9,1.5-3.4,3.4-3.4s3.4,1.5,3.4,3.4
	C86.4,78.6,84.8,80.1,83,80.1z M86.4,66.8c-1.9,0-3.4-1.5-3.4-3.4c0-1.9,1.5-3.4,3.4-3.4s3.4,1.5,3.4,3.4
	C89.7,65.3,88.2,66.8,86.4,66.8z"/>
</svg>
